<svg width="60" height="60" viewBox="0 0 60 60" fill="none" xmlns="http://www.w3.org/2000/svg"><path d="M42.1252 19.75C39.6668 19.75 36.9585 21.0417 36.9585 24.625V30.75C36.9585 33.75 39.2918 35.5 42.3335 35.5C44.7918 35.5 47.5835 34.2083 47.5835 30.625V24.5417C47.5835 21.5417 45.1668 19.75 42.1252 19.75Z" fill="#ffffff"></path><path d="M11.6665 32.6667C11.6665 34.75 13.3748 35.7917 16.1248 35.7917C20.8332 35.8333 21.6248 33.5 21.6248 30.8333V29.625H15.8332C13.3332 29.625 11.6665 30.5 11.6665 32.6667Z" fill="#ffffff"></path><path d="M0 0V60H60V0H0ZM13.2083 46.4583H11.2083V46.25C11.2083 45.375 10.4583 45 9.79167 45C9.04167 45 8.33333 45.375 8.33333 46.375V48.9583C8.33333 49.8333 8.95833 50.3333 9.83333 50.3333C10.5 50.3333 11.2083 49.9583 11.2083 49.0833V48.875H13.2083V49.2917C13.2083 51.25 11.4583 52.0833 9.83333 52.0833C7.95833 52.0833 6.20833 51.125 6.20833 49.0417V46.4583C6.20833 44.375 7.91667 43.3333 9.75 43.3333C11.4167 43.3333 13.2083 44.1667 13.2083 46.125V46.4583ZM21.4167 48.8333C21.4167 51.0417 19.5833 52.0417 17.8333 52.0417C15.9167 52.0417 14.2083 51.125 14.2083 48.9583V46.5417C14.2083 44.375 15.9583 43.3333 17.7917 43.3333C19.6667 43.3333 21.4583 44.3333 21.4583 46.5417V48.8333H21.4167ZM21.875 37.7083H21.7917C19.625 39.9583 17.75 40.4583 14.5417 40.4583C9.41667 40.4583 5.95833 37.6667 5.95833 32.9583C5.95833 28.1667 10.2917 25.3333 15.0833 25.3333H21.6667V23.0833C21.6667 20.4583 19.9167 19.375 16.9167 19.375C14.375 19.375 12.4583 20.25 12.4583 21.8333V22.7083H7.125V22.0417C7.125 16.625 12.2917 14.7917 16.9167 14.7917C22.4167 14.7917 27.5 16.625 27.5 22.6667V34.7083C27.5 35.8333 27.625 39.5 27.9167 40H22.0833C22 39.5833 21.9167 38.0833 21.875 37.7083ZM29.6667 48.7917C29.6667 50.9167 28.0833 52.0417 26.125 52.0417C23.9583 52.0417 22.625 51.0417 22.625 48.9167V43.4167H24.75V48.75C24.75 49.7083 25.25 50.2917 26.2083 50.2917C27.0833 50.2917 27.625 49.75 27.625 48.75V43.4167H29.7083V48.7917H29.6667ZM38.3333 51.9167H36.375L33.0417 46.9167H33V51.9167H31.0417V43.4583H33.0833L36.2917 48.25H36.3333V43.4583H38.3333V51.9167ZM46.5833 46.4583H44.5833V46.25C44.5833 45.375 43.8333 45 43.1667 45C42.4167 45 41.7083 45.375 41.7083 46.375V48.9583C41.7083 49.8333 42.3333 50.3333 43.2083 50.3333C43.875 50.3333 44.5833 49.9583 44.5833 49.0833V48.875H46.5833V49.2917C46.5833 51.25 44.8333 52.0833 43.2083 52.0833C41.3333 52.0833 39.5833 51.125 39.5833 49.0417V46.4583C39.5833 44.375 41.2917 43.3333 43.125 43.3333C44.7917 43.3333 46.5833 44.1667 46.5833 46.125V46.4583ZM47.6667 37.2083C46.25 39.125 42.9167 40.5417 40.7083 40.5417C35.2917 40.5417 30.9583 37.125 30.9583 30.7917V24.8333C30.9583 18.125 35.625 14.7917 41.125 14.7917C43.875 14.7917 46.1667 16.2083 47.4167 17.8333H47.5417V5.54167H53.4167V39.9583H47.6667V37.2083ZM49.875 51.9167H47.75V43.4583H49.875V51.9167ZM56 51.9167H51.3333V43.4583H53.4583V50H56V51.9167Z" fill="#ffffff"></path><path d="M17.7918 45C17.0418 45 16.3335 45.4167 16.3335 46.375V48.875C16.3335 49.7917 16.9585 50.2917 17.8335 50.2917C18.5835 50.2917 19.2918 49.8333 19.2918 48.875V46.375C19.2918 45.5 18.5835 45 17.7918 45Z" fill="#ffffff"></path></svg>