<svg width="147" height="37" viewBox="0 0 147 37" xmlns="http://www.w3.org/2000/svg" style="fill: #ffffff"><g fill-rule="evenodd"><path d="M16.696 14.51l-1.69-2.58h14.917l-7.459 11.39-1.542-2.356-1.992 3.041-6.217-9.494h3.983zM18.5 37C8.283 37 0 28.717 0 18.5S8.283 0 18.5 0 37 8.283 37 18.5 28.717 37 18.5 37zm11.423-25.07H7.938L18.93 28.717l10.993-16.789zm0 0l-7.459 11.39-7.458-11.39h14.917zm-10.141 2.58h5.365l-2.683 4.098-2.682-4.097zM49.62 26.749h4.536l2.52-7.896 2.464 7.896h4.592l4.676-15.26h-5.124L61.24 19.16l-2.352-7.728H54.52l-2.352 7.672-1.988-7.616H45l4.62 15.26zM76.2 27c4.872 0 8.4-3.612 8.4-7.924v-.056c0-4.312-3.5-7.868-8.344-7.868-4.844 0-8.372 3.612-8.372 7.924v.056c0 4.312 3.5 7.868 8.316 7.868zm.056-4.508c-1.876 0-3.22-1.568-3.22-3.416v-.056c0-1.848 1.232-3.388 3.164-3.388 1.876 0 3.248 1.568 3.248 3.444v.056c0 1.82-1.26 3.36-3.192 3.36zm9.584 4.144h5.32v-4.732c0-3.472 1.568-5.068 4.34-5.068h.448v-5.6c-2.52-.112-3.92 1.232-4.788 3.304v-3.052h-5.32v15.148zm10.984 0h5.32v-3.584l1.372-1.596 3.024 5.18h5.88l-5.404-9.1 5.264-6.048h-6.02l-4.116 5.068V6.196h-5.32v20.44zm15.912-16.52h5.516v-3.92h-5.516v3.92zm.112 16.52h5.292V11.488h-5.292v15.148zm8.24 0h5.32V15.744h3.388v-4.088h-3.5v-.364c0-.98.532-1.428 1.512-1.428.784 0 1.372.112 1.988.308V6.42c-.812-.252-1.848-.42-3.444-.42-1.82 0-3.052.392-3.976 1.316-.896.896-1.288 2.184-1.288 3.92v.308h-1.764v4.2h1.764v10.892zm16.836-6.02l-3.024-9.128h-5.544l5.936 14.868c-.364.476-.728.616-1.26.616-.588 0-1.456-.308-2.324-.812l-1.624 3.724c1.4.812 2.968 1.316 4.844 1.316 3.024 0 4.452-1.372 5.768-4.928l5.544-14.784h-5.46l-2.856 9.128z"></path></g></svg>